<svg xmlns="http://www.w3.org/2000/svg" viewBox="0 0 220 100" width="220" height="100">
  <defs>
    <linearGradient id="pg" x1="0%" y1="0%" x2="100%" y2="100%">
      <stop offset="0%" stop-color="#9099FF"/>
      <stop offset="100%" stop-color="#5558E3"/>
    </linearGradient>
    <radialGradient id="glow" cx="50%" cy="50%" r="50%">
      <stop offset="0%" stop-color="#6B72F0" stop-opacity="0.28"/>
      <stop offset="100%" stop-color="#5558E3" stop-opacity="0"/>
    </radialGradient>
  </defs>
  <ellipse cx="46" cy="50" rx="28" ry="28" fill="url(#glow)"/>
  <line x1="46" y1="27" x2="26" y2="50" stroke="#8B93FF" stroke-width="1.1" opacity="0.5"/>
  <line x1="46" y1="27" x2="66" y2="50" stroke="#8B93FF" stroke-width="1.1" opacity="0.5"/>
  <line x1="26" y1="50" x2="46" y2="73" stroke="#8B93FF" stroke-width="1.1" opacity="0.5"/>
  <line x1="66" y1="50" x2="46" y2="73" stroke="#8B93FF" stroke-width="1.1" opacity="0.5"/>
  <line x1="26" y1="50" x2="66" y2="50" stroke="#8B93FF" stroke-width="0.7" opacity="0.3"/>
  <line x1="46" y1="27" x2="46" y2="73" stroke="#8B93FF" stroke-width="0.7" opacity="0.3"/>
  <circle cx="46" cy="21" r="4.5" fill="url(#pg)"/>
  <path d="M40,32 C40,26 52,26 52,32" fill="none" stroke="url(#pg)" stroke-width="1.8" stroke-linecap="round"/>
  <circle cx="19" cy="45" r="3.5" fill="none" stroke="url(#pg)" stroke-width="1.6" opacity="0.85"/>
  <path d="M14,54 C14,49 24,49 24,54" fill="none" stroke="url(#pg)" stroke-width="1.4" stroke-linecap="round" opacity="0.85"/>
  <circle cx="73" cy="45" r="3.5" fill="none" stroke="url(#pg)" stroke-width="1.6" opacity="0.85"/>
  <path d="M68,54 C68,49 78,49 78,54" fill="none" stroke="url(#pg)" stroke-width="1.4" stroke-linecap="round" opacity="0.85"/>
  <circle cx="46" cy="69" r="3.5" fill="none" stroke="url(#pg)" stroke-width="1.6" opacity="0.75"/>
  <path d="M41,78 C41,73 51,73 51,78" fill="none" stroke="url(#pg)" stroke-width="1.4" stroke-linecap="round" opacity="0.75"/>
  <circle cx="46" cy="50" r="17" fill="none" stroke="#8B93FF" stroke-width="0.7" opacity="0.2" stroke-dasharray="3 4"/>
  <text x="92" y="41" font-family="'Segoe UI', system-ui, sans-serif" font-size="15" font-weight="800" fill="#7B82FF" letter-spacing="3">ACUMEN</text>
  <text x="92" y="59" font-family="'Segoe UI', system-ui, sans-serif" font-size="15" font-weight="800" fill="#7B82FF" letter-spacing="3">TEAMS</text>
  <text x="92" y="74" font-family="'Segoe UI', system-ui, sans-serif" font-size="8" font-weight="400" fill="#6066A8" letter-spacing="2">BUSINESS WORKSPACE</text>
</svg>
